<svg width="24" height="24" viewBox="0 0 24 24" fill="none" xmlns="http://www.w3.org/2000/svg">
<path d="M12 24C18.6274 24 24 18.6274 24 12C24 5.37258 18.6274 0 12 0C5.37258 0 0 5.37258 0 12C0 18.6274 5.37258 24 12 24Z" fill="#36B37E"/>
<path d="M15.9052 7.90049C15.3232 6.42149 13.8637 6.28799 12.1642 6.61799L11.5589 4.50824L10.2749 4.87649L10.8644 6.93149C10.5269 7.02749 10.1834 7.13399 9.84217 7.23899L9.24967 5.17049L7.96642 5.53799L8.57017 7.64774C8.29417 7.73324 8.02267 7.81724 7.75642 7.89374L7.75417 7.88624L5.98267 8.39399L6.37642 9.76649C6.37642 9.76649 7.31992 9.47549 7.30867 9.49799C7.82917 9.34874 8.08492 9.60224 8.20867 9.84899L8.89867 12.252C8.93392 12.2422 8.98117 12.2302 9.03667 12.222L8.90092 12.261L9.86617 15.6285C9.89017 15.7987 9.86917 16.0875 9.50617 16.1925C9.52642 16.2022 8.57167 16.4595 8.57167 16.4595L8.75692 18.0667L10.4279 17.5867C10.7392 17.499 11.0467 17.4165 11.3474 17.3317L11.9602 19.4655L13.2427 19.098L12.6374 16.9867C12.9814 16.8955 13.3245 16.8005 13.6664 16.7017L14.2679 18.804L15.5527 18.4357L14.9422 16.3057C17.0654 15.5625 18.4207 14.5852 18.0269 12.5032C17.7104 10.8277 16.7339 10.3192 15.4237 10.3762C16.0597 9.78374 16.3334 8.98199 15.9052 7.90049ZM15.4177 12.978C15.8752 14.5732 13.0927 15.1747 12.2227 15.4252L11.4119 12.5977C12.2819 12.348 14.9399 11.3152 15.4169 12.9787L15.4177 12.978ZM13.6762 9.16049C14.0917 10.6117 11.7659 11.0955 11.0407 11.3032L10.3057 8.73899C11.0302 8.53124 13.2419 7.64699 13.6762 9.16049Z" fill="white"/>
</svg>
