<svg width="24" height="24" viewBox="0 0 24 24" fill="none" xmlns="http://www.w3.org/2000/svg">
<path d="M12 24C18.6274 24 24 18.6274 24 12C24 5.37258 18.6274 0 12 0C5.37258 0 0 5.37258 0 12C0 18.6274 5.37258 24 12 24Z" fill="#008CE7"/>
<path d="M8.85752 6.00294H14.3138C19.107 6.00294 19.9545 8.6182 19.275 12.2932C18.8168 14.7629 17.676 16.6552 15.7605 17.5387C14.8973 17.9369 14.0798 18.1612 12.1605 18.1612H6.71777L7.16927 15.6329L11.9528 15.6359C14.8313 15.6397 15.5993 14.3932 15.972 13.2982C16.11 12.8902 16.4363 11.6242 16.4468 10.8757C16.47 9.41545 15.7508 8.53569 13.3275 8.53569L8.40602 8.5282L8.85752 6.00294Z" fill="white"/>
<path d="M12.0894 10.8135C12.0894 10.8135 12.0332 11.1097 11.8554 11.8485C11.8536 11.8562 11.8517 11.8639 11.8498 11.8717C11.7139 12.4369 11.4962 13.3417 10.0884 13.3417H4.50317C4.50317 13.3417 4.55942 13.0417 4.73717 12.306C4.73905 12.2982 4.74093 12.2904 4.74283 12.2825C4.87879 11.718 5.09663 10.8135 6.50492 10.8135H12.0894Z" fill="white"/>
</svg>
