<svg width="24" height="24" viewBox="0 0 24 24" fill="none" xmlns="http://www.w3.org/2000/svg">
<path d="M11.965 0C8.78544 0.00927494 5.73954 1.28005 3.49618 3.53325C1.25281 5.78646 -0.00462469 8.83789 1.2782e-05 12.0175C0.00465026 15.197 1.27098 18.2448 3.52091 20.4914C5.77084 22.7381 8.82043 24 12 24C15.1796 24 18.2292 22.7381 20.4791 20.4914C22.729 18.2448 23.9953 15.197 24 12.0175C24.0046 8.83789 22.7472 5.78646 20.5038 3.53325C18.2605 1.28005 15.2146 0.00927494 12.035 0H11.965Z" fill="#0052CC"/>
<path d="M11.7738 12.3365L10.7167 15.8863H16.3415C16.3786 15.8844 16.4158 15.8904 16.4506 15.9038C16.4853 15.9168 16.5171 15.9364 16.5444 15.9616C16.5714 15.9874 16.5933 16.0181 16.6087 16.0521C16.6251 16.0862 16.634 16.1234 16.6349 16.1612V16.2539L16.1451 17.9416C16.1241 18.0216 16.0759 18.0918 16.0087 18.1401C15.9422 18.1889 15.861 18.2136 15.7786 18.2099H7.17127L8.61346 13.3009L7 13.7896L7.36655 12.6649L8.98 12.175L11.0102 5.26958C11.0322 5.19002 11.0807 5.12036 11.1476 5.07213C11.2139 5.02331 11.2945 4.99798 11.3767 5.00013H13.5586C13.5958 4.99917 13.6328 5.00547 13.6676 5.01867C13.7028 5.03145 13.7351 5.0511 13.7626 5.07649C13.7901 5.10185 13.812 5.1327 13.8269 5.16704C13.8426 5.20133 13.8511 5.23844 13.852 5.27613V5.36994L12.1404 11.1899L13.7549 10.7001L13.4102 11.8718L11.7738 12.3365Z" fill="white"/>
</svg>
