<svg width="24" height="24" viewBox="0 0 24 24" fill="none" xmlns="http://www.w3.org/2000/svg">
<g clip-path="url(#clip0_178_107)">
<path d="M24 12C24 18.6276 18.6276 24 12 24C5.37264 24 0 18.6276 0 12C0 5.37252 5.37264 0 12 0C18.6276 0 24 5.37252 24 12Z" fill="#1BA27A"/>
<path fill-rule="evenodd" clip-rule="evenodd" d="M6.53369 6H17.84V8.72955H13.5516V10.5346C16.8952 10.6753 19.4252 11.3333 19.4252 12.1238C19.4252 12.9144 16.895 13.5724 13.5514 13.7131V19.4701H10.8221V13.7108C7.504 13.5656 5 12.9103 5 12.1238C5 11.3373 7.50411 10.6821 10.822 10.5368V8.72955H6.53369V6ZM10.822 10.6901C7.94299 10.8142 5.78913 11.3154 5.78913 11.9147C5.78913 12.6074 8.66519 13.1688 12.2127 13.1688C15.7601 13.1688 18.6361 12.6074 18.6361 11.9147C18.6361 11.3118 16.4564 10.8082 13.5516 10.6879V12.7415H10.822V10.6901Z" fill="white"/>
</g>
<defs>
<clipPath id="clip0_178_107">
<rect width="24" height="24" fill="white"/>
</clipPath>
</defs>
</svg>
