<svg width="85" height="20" viewBox="0 0 85 20" fill="none" xmlns="http://www.w3.org/2000/svg">
<path fill-rule="evenodd" clip-rule="evenodd" d="M48.5449 0H54.4596L61.1777 20H55.5904L48.5449 0Z" fill="#0C68F4"/>
<path fill-rule="evenodd" clip-rule="evenodd" d="M40.547 0H46.4543L53.1799 20H47.5926L40.547 0Z" fill="#0C68F4"/>
<path fill-rule="evenodd" clip-rule="evenodd" d="M45.0332 20L38.3151 0H32.4004L25.6823 20H31.2621L35.3541 8.38301L39.4534 20H45.0332Z" fill="#0C68F4"/>
<path fill-rule="evenodd" clip-rule="evenodd" d="M10.7133 0L17.4315 20H17.439H23.3461L30.0718 0H24.4844L20.3926 11.617L16.3007 0H10.7133Z" fill="#0C68F4"/>
<path fill-rule="evenodd" clip-rule="evenodd" d="M55.5978 20H62.1821L66.0954 15.0447H59.5112L55.5978 20Z" fill="#FDD835"/>
<path fill-rule="evenodd" clip-rule="evenodd" d="M68.1264 4.96274L66.3782 0H59.9873L61.7356 4.96274H68.1264Z" fill="#FDD835"/>
<path fill-rule="evenodd" clip-rule="evenodd" d="M82.7309 7.51119L62.6358 7.50374L63.5064 9.98511L61.5497 12.459H81.8009L83.6534 10.1118L82.7309 7.51119Z" fill="#FDD835"/>
<path fill-rule="evenodd" clip-rule="evenodd" d="M85 0H78.8324L75.2761 4.5082L73.7658 0H67.3304C68.2158 2.50373 69.1011 5.00745 69.9789 7.50373L70.8867 10.0894L68.9374 12.5559L63.0674 19.9925H69.3243L72.821 15.544L74.3908 19.9925H80.4989L77.1361 10L85 0Z" fill="#FDD835"/>
<path fill-rule="evenodd" clip-rule="evenodd" d="M69.9716 7.51119L70.8718 10.0894L69.0044 12.459H65.2324L66.155 7.50374L69.9716 7.51119Z" fill="url(#paint0_linear_1_15)"/>
<path fill-rule="evenodd" clip-rule="evenodd" d="M79.0853 7.50374L77.1213 10L77.9471 12.459H80.6105L82.4556 10.1118L81.533 7.51119L79.0853 7.50374Z" fill="url(#paint1_linear_1_15)"/>
<path fill-rule="evenodd" clip-rule="evenodd" d="M11.5913 5.76751L9.67922 11.617L5.58731 0H0L6.7256 20H12.6328H12.6403L14.4928 14.2325L11.5913 5.76751Z" fill="#0C68F4"/>
<defs>
<linearGradient id="paint0_linear_1_15" x1="65.6852" y1="9.54191" x2="72.8091" y2="11.6753" gradientUnits="userSpaceOnUse">
<stop stop-color="#1B0000" stop-opacity="0"/>
<stop offset="1" stop-color="#140000" stop-opacity="0.3"/>
</linearGradient>
<linearGradient id="paint1_linear_1_15" x1="77.1213" y1="9.98137" x2="80.7881" y2="9.98137" gradientUnits="userSpaceOnUse">
<stop stop-color="#140000" stop-opacity="0.3"/>
<stop offset="1" stop-color="#1B0000" stop-opacity="0"/>
</linearGradient>
</defs>
</svg>
